<svg width="40" height="40" viewBox="0 0 40 40" fill="none" xmlns="http://www.w3.org/2000/svg">
<path fill-rule="evenodd" clip-rule="evenodd" d="M36.5387 17.6113C36.3013 19.2559 35.7387 20.8189 34.905 22.2563C34.9675 22.6121 34.9996 22.9719 34.9996 23.3331C34.9996 24.5878 34.636 25.7886 33.9626 26.8796C33.6264 27.4242 33.5399 28.0623 33.5067 28.4839C33.4685 28.9671 33.4814 29.4958 33.5159 30.0037C33.5546 30.5735 33.6246 31.1717 33.7048 31.736C33.0543 31.5463 32.3492 31.3558 31.6763 31.204C31.1166 31.0777 30.5439 30.9701 30.0252 30.9165C29.5727 30.8698 28.9188 30.8336 28.3341 31.0226C27.0556 31.4359 25.6488 31.6665 24.1662 31.6665C22.403 31.6665 20.7837 31.3535 19.3643 30.8098C19.0229 30.8253 18.679 30.8331 18.3328 30.8331C16.3252 30.8331 14.3929 30.5691 12.585 30.0811C15.2132 33.1209 19.546 34.9998 24.1662 34.9998C25.9711 34.9998 27.7034 34.7227 29.2999 34.2135C29.3027 34.2136 29.3078 34.2135 29.3153 34.2133C29.3563 34.2125 29.4701 34.2103 29.6827 34.2322C30.017 34.2667 30.4469 34.3438 30.9428 34.4556C31.9301 34.6783 33.0395 35.007 33.9041 35.2814C35.7377 35.8635 37.5143 34.2634 37.1866 32.4027C37.0456 31.6019 36.899 30.6245 36.8415 29.7778C36.8126 29.3521 36.8094 29.0026 36.8297 28.7462C36.8381 28.6399 36.8488 28.5733 36.8556 28.5379C37.7933 26.9846 38.3329 25.216 38.3329 23.3331C38.3329 21.2105 37.6736 19.2723 36.5387 17.6113Z" fill="#FF5A30"/>
<path fill-rule="evenodd" clip-rule="evenodd" d="M9.32773 9.49759C7.08113 11.2156 5.83266 13.4708 5.83266 15.834C5.83266 17.0124 6.13943 18.1473 6.71496 19.2027C6.93417 19.6047 6.99636 20.0193 7.0186 20.3C7.04285 20.6061 7.03076 20.9207 7.00414 21.2149C6.95085 21.8038 6.82372 22.4711 6.67124 23.1284C6.49287 23.8972 6.26431 24.7171 6.03239 25.487C6.91281 25.167 7.87508 24.8391 8.78733 24.5729C9.52461 24.3578 10.2692 24.1712 10.9318 24.0664C11.5027 23.9761 12.3311 23.8874 13.0443 24.1342C14.6448 24.6879 16.4353 25.0007 18.3327 25.0007C21.9113 25.0007 25.0895 23.8895 27.3376 22.1704C29.5842 20.4524 30.8327 18.1972 30.8327 15.834C30.8327 13.4708 29.5842 11.2156 27.3376 9.49759C25.0895 7.77843 21.9113 6.66732 18.3327 6.66732C14.754 6.66732 11.5759 7.77843 9.32773 9.49759ZM7.30289 6.84973C10.1821 4.648 14.0872 3.33398 18.3327 3.33398C22.5781 3.33398 26.4832 4.648 29.3624 6.84973C32.2431 9.05264 34.166 12.2141 34.166 15.834C34.166 19.4539 32.2431 22.6153 29.3624 24.8182C26.4832 27.02 22.5781 28.334 18.3327 28.334C16.0942 28.334 13.9561 27.9691 12.0148 27.3051C12.0128 27.3105 11.8554 27.2951 11.4524 27.3588C10.988 27.4323 10.3952 27.5761 9.72089 27.7729C8.37845 28.1645 6.87087 28.7186 5.72255 29.1655C3.73317 29.9397 1.70658 28.0291 2.37685 25.9939C2.7321 24.9152 3.15108 23.5521 3.42414 22.375C3.5617 21.7821 3.65096 21.2836 3.68437 20.9145C3.69596 20.7863 3.69896 20.6929 3.69829 20.6298C2.93115 19.1638 2.49932 17.5427 2.49932 15.834C2.49932 12.2141 4.42216 9.05264 7.30289 6.84973ZM3.6928 20.5389C3.69296 20.5387 3.69377 20.5431 3.69475 20.5528C3.69313 20.5439 3.69264 20.5391 3.6928 20.5389Z" fill="#FF5A30"/>
</svg>
