<svg width="40" height="40" viewBox="0 0 40 40" fill="none" xmlns="http://www.w3.org/2000/svg">
<path fill-rule="evenodd" clip-rule="evenodd" d="M14.1663 4.87044C12.7856 4.87044 11.6663 5.98973 11.6663 7.37044V32.6309C11.6663 34.0116 12.7856 35.1309 14.1663 35.1309H25.833C27.2137 35.1309 28.333 34.0116 28.333 32.6309V7.37044C28.333 5.98973 27.2137 4.87044 25.833 4.87044H25.694L25.2881 5.84453C25.0293 6.46556 24.4225 6.87007 23.7497 6.87007H16.2497C15.5769 6.87007 14.9701 6.46556 14.7113 5.84453L14.3053 4.87044H14.1663ZM8.33301 7.37044C8.33301 4.14878 10.9447 1.53711 14.1663 1.53711H25.833C29.0547 1.53711 31.6663 4.14878 31.6663 7.37044V32.6309C31.6663 35.8525 29.0547 38.4642 25.833 38.4642H14.1663C10.9447 38.4642 8.33301 35.8525 8.33301 32.6309V7.37044Z" fill="#FF5A30"/>
</svg>
